<svg xmlns="http://www.w3.org/2000/svg" xmlns:xlink="http://www.w3.org/1999/xlink" width="273" height="273" viewBox="0 0 273 273"><defs><clipPath id="clip-Artboard_3"><rect width="273" height="273"></rect></clipPath></defs><g id="Artboard_3" data-name="Artboard – 3" clip-path="url(#clip-Artboard_3)"><path id="Path_49215" data-name="Path 49215" d="M241.285,498.386c4.658.355,9.319.694,13.975,1.073,2.888.235,5.771.532,8.727.808v43.2c-1.189,0-2.3-.016-3.419,0-9.183.147-18.4-.113-27.539.564-9.842.73-15.642,5.827-16.262,15.679-.84,13.354-.209,26.8-.209,40.5h43.409l-6.009,48.255H216.182V769.811h-48.39V648.64H128.518V600.324h39.188c0-1.267-.008-2.281,0-3.293.121-14.225-.263-28.477.5-42.669.9-16.694,6.628-31.57,19.772-42.77,8.821-7.518,19.272-11.215,30.628-12.675.85-.109,1.684-.351,2.525-.531Z" transform="translate(-58.858 -496.811)" fill="#fbfbfb"></path></g></svg>