<svg
				xmlns="http://www.w3.org/2000/svg"
				xmlns:xlink="http://www.w3.org/1999/xlink"
				width="273"
				height="273"
				viewBox="0 0 273 273"
			>
				<defs>
					<clipPath id="clip-Artboard_1"><rect width="273" height="273"></rect></clipPath>
				</defs>
				<g id="Artboard_1" clip-path="url(#clip-Artboard_1)">
					<path
						id="Path_49212"
						data-name="Path 49212"
						d="M266.656,34.726c-2.961-16.4-12.971-26.932-28.615-29.8a145.512,145.512,0,0,0-19.586-2.348C190.645,1.318,162.8,1.19,134.979.1c0,.035,0,.057,0,.07,0-.015,0-.041,0-.07-6.4,0-12.794-.092-19.189.016C89.269.566,62.741.858,36.361,4.157,19.952,6.208,8.586,15.982,5.169,32.234a222.114,222.114,0,0,0-3.7,27.635,391.347,391.347,0,0,0-.6,59.5c.87,12.266,1.991,24.57,4.027,36.684C7.557,171.92,18.474,182.414,33.845,184.7A240.878,240.878,0,0,0,61.323,187.5c28.2.917,56.414,1.764,84.626,1.906,28.123.142,56.255-.525,84.268-3.476,7.22-.761,14.339-1.916,20.652-5.965,10.438-6.7,15.188-16.759,16.325-28.579,1.54-15.994,3.094-32.022,3.623-48.069.756-22.953-.064-45.9-4.16-68.6M105.751,135.3V54.149L176.2,94.714,105.751,135.3"
						transform="translate(1.001 41.934)"
						fill="#fff"
					></path>
				</g>
			</svg>