<svg xmlns="http://www.w3.org/2000/svg" xmlns:xlink="http://www.w3.org/1999/xlink" width="273" height="273" viewBox="0 0 273 273"><defs><clipPath id="clip-path"><rect id="Rectangle_1797" data-name="Rectangle 1797" width="238.339" height="271.188" fill="none"></rect></clipPath><clipPath id="clip-Artboard_4"><rect width="273" height="273"></rect></clipPath></defs><g id="Artboard_4" data-name="Artboard – 4" clip-path="url(#clip-Artboard_4)"><g id="Group_77116" data-name="Group 77116" transform="translate(18.226 1.812)"><g id="Group_77115" data-name="Group 77115" clip-path="url(#clip-path)"><path id="Path_49216" data-name="Path 49216" d="M169.573,0c.874,34.072,23.548,60.79,57.042,67.088a81.286,81.286,0,0,0,9.753.9c1.245.081,1.977.309,1.972,1.776-.045,13.79-.047,27.58-.076,41.369a3.494,3.494,0,0,1-.328.911,108.327,108.327,0,0,1-35.833-5.871,115.485,115.485,0,0,1-32.481-17.3c0,1.469,0,2.4,0,3.336.09,30.851.108,61.7.3,92.554.106,16.944-3.535,32.888-12.962,47.052-18.284,27.47-44.148,40.85-77.134,39.242A83.966,83.966,0,0,1,2.993,209.465c-12.153-43.63,13.838-89.85,57.5-102.385a88.528,88.528,0,0,1,34.09-3.038c.958.1,1.9.327,3,.521v44.59c-.815-.159-1.547-.264-2.26-.445a40.156,40.156,0,0,0-50.379,40.374c.634,20.073,16.757,36.618,37.37,38.349,19.623,1.649,38.464-12.631,42.084-32.057a56.791,56.791,0,0,0,.815-10.28q.117-90.566.135-181.132c0-1.321.125-2.642.193-3.963Z" transform="translate(0)" fill="#fff"></path></g></g></g></svg>