<?xml version="1.0" encoding="UTF-8" ?>
<!DOCTYPE svg PUBLIC "-//W3C//DTD SVG 1.1//EN" "http://www.w3.org/Graphics/SVG/1.1/DTD/svg11.dtd">
<svg width="2670pt" height="381pt" viewBox="0 0 2670 381" version="1.1" xmlns="http://www.w3.org/2000/svg">
<g id="#ffffffff">
<path fill="#ffffff" opacity="1.00" d=" M 2025.31 0.00 L 2040.56 0.00 C 2066.15 0.78 2091.89 4.25 2116.05 13.03 C 2132.80 18.88 2148.64 27.48 2162.46 38.63 C 2185.59 56.99 2201.99 83.23 2209.65 111.66 C 2214.61 129.30 2215.89 147.73 2215.78 165.98 C 2215.78 233.49 2215.79 301.00 2215.77 368.50 C 2192.33 368.50 2168.89 368.50 2145.45 368.50 C 2145.45 301.34 2145.45 234.17 2145.45 167.01 C 2145.35 149.39 2142.46 131.43 2134.24 115.67 C 2125.40 98.12 2110.28 84.00 2092.53 75.70 C 2076.80 68.02 2059.32 64.42 2041.91 63.65 C 2018.89 62.55 1995.16 65.30 1974.17 75.31 C 1958.75 82.37 1945.21 93.70 1935.99 107.97 C 1925.80 123.67 1920.96 142.43 1920.54 161.04 C 1920.54 230.19 1920.54 299.35 1920.53 368.50 C 1897.08 368.51 1873.62 368.50 1850.17 368.50 C 1850.11 295.00 1850.25 221.47 1850.09 147.97 C 1851.45 120.18 1859.56 92.42 1875.21 69.26 C 1892.47 43.07 1919.21 23.96 1948.56 13.48 C 1973.08 4.40 1999.28 0.80 2025.31 0.00 Z" />
<path fill="#ffffff" opacity="1.00" d=" M 12.04 12.98 C 15.92 11.81 20.00 12.17 23.99 12.12 C 87.01 12.13 150.02 12.12 213.04 12.12 C 222.36 12.16 231.74 11.82 241.00 13.14 C 262.76 15.72 283.90 24.26 300.98 38.04 C 321.16 54.02 335.69 76.94 341.38 102.06 C 347.83 129.68 344.29 159.68 330.50 184.57 C 317.81 208.28 296.24 226.59 271.55 236.89 C 301.00 280.76 330.48 324.62 359.93 368.50 C 333.52 368.50 307.11 368.51 280.69 368.49 C 253.21 327.61 225.73 286.73 198.21 245.87 C 155.41 245.88 112.61 245.87 69.81 245.88 C 69.80 286.75 69.83 327.63 69.80 368.50 C 46.53 368.50 23.27 368.50 0.00 368.50 L 0.00 25.82 C 1.52 19.87 6.21 14.87 12.04 12.98 M 69.81 72.88 C 69.81 110.29 69.81 147.71 69.81 185.12 C 113.55 185.13 157.29 185.12 201.02 185.12 C 208.41 185.09 215.82 185.32 223.16 184.37 C 235.96 182.91 248.72 178.15 258.17 169.18 C 270.49 157.91 275.42 140.31 273.86 124.02 C 273.05 110.47 267.54 96.85 257.12 87.88 C 244.93 76.87 228.01 72.89 211.96 72.90 C 164.58 72.84 117.19 72.89 69.81 72.88 Z" />
<path fill="#ffffff" opacity="1.00" d=" M 463.03 12.91 C 465.62 12.14 468.35 12.13 471.03 12.11 C 487.54 12.14 504.06 12.11 520.57 12.13 C 520.57 78.39 520.58 144.66 520.57 210.93 C 520.18 229.29 523.03 248.08 531.50 264.55 C 538.77 279.10 550.31 291.36 564.15 299.84 C 580.58 310.13 599.84 315.00 619.00 316.62 C 640.24 318.08 662.00 316.49 682.15 309.26 C 700.39 302.78 717.08 291.13 728.15 275.12 C 737.48 261.90 742.80 246.13 744.63 230.13 C 745.90 219.81 745.40 209.40 745.50 199.03 C 745.51 142.69 745.49 86.34 745.51 29.99 C 745.37 20.66 753.63 12.14 763.00 12.18 C 780.59 12.04 798.19 12.16 815.79 12.12 C 815.78 83.45 815.82 154.77 815.77 226.09 C 815.49 261.79 803.78 298.03 779.99 325.05 C 758.46 350.05 727.93 365.93 696.15 373.53 C 677.99 378.12 659.27 379.65 640.65 381.00 L 625.34 381.00 C 599.73 379.40 573.86 376.51 549.65 367.55 C 520.16 357.25 493.38 338.19 475.85 312.12 C 461.35 290.82 453.18 265.56 450.93 239.98 C 449.98 230.02 450.28 220.02 450.24 210.03 C 450.24 149.99 450.23 89.95 450.24 29.90 C 450.15 22.23 455.74 15.06 463.03 12.91 Z" />
<path fill="#ffffff" opacity="1.00" d=" M 936.75 30.08 C 936.57 20.85 944.62 12.35 953.88 12.20 C 971.59 12.02 989.30 12.17 1007.01 12.12 C 1007.04 61.41 1007.01 110.71 1007.02 160.00 C 1077.70 160.00 1148.38 160.00 1219.06 160.00 C 1219.06 118.33 1219.06 76.66 1219.06 34.99 C 1219.05 31.12 1218.75 27.08 1220.35 23.44 C 1223.04 16.87 1229.75 12.09 1236.93 12.16 C 1254.39 12.07 1271.86 12.15 1289.33 12.12 C 1289.34 130.91 1289.33 249.70 1289.33 368.49 C 1265.92 368.52 1242.50 368.48 1219.08 368.51 C 1219.02 319.22 1219.08 269.92 1219.06 220.63 C 1148.38 220.62 1077.70 220.62 1007.02 220.62 C 1006.96 269.93 1007.14 319.24 1006.93 368.55 C 983.54 368.44 960.14 368.54 936.75 368.49 C 936.75 255.69 936.75 142.88 936.75 30.08 Z" />
<path fill="#ffffff" opacity="1.00" d=" M 1424.66 30.02 C 1424.45 20.35 1433.32 11.76 1442.97 12.14 C 1541.50 12.10 1640.02 12.12 1738.55 12.13 C 1738.49 26.73 1738.63 41.32 1738.48 55.92 C 1738.03 65.32 1729.33 73.21 1719.95 72.87 C 1644.98 72.89 1570.00 72.86 1495.02 72.88 C 1495.01 101.92 1495.02 130.96 1495.02 160.00 C 1569.10 160.01 1643.18 159.99 1717.26 160.00 C 1717.27 180.21 1717.26 200.41 1717.27 220.61 C 1643.19 220.64 1569.10 220.61 1495.02 220.63 C 1495.02 249.67 1495.01 278.71 1495.03 307.75 C 1576.20 307.74 1657.37 307.75 1738.54 307.75 C 1738.55 328.00 1738.54 348.25 1738.54 368.50 C 1633.92 368.50 1529.29 368.51 1424.67 368.49 C 1424.66 255.67 1424.68 142.85 1424.66 30.02 Z" />
<path fill="#ffffff" opacity="1.00" d=" M 2373.05 24.17 C 2388.08 16.29 2405.02 12.05 2422.01 12.13 C 2494.72 12.11 2567.43 12.12 2640.14 12.12 C 2640.09 27.08 2640.24 42.05 2640.07 57.01 C 2639.62 66.25 2631.22 73.98 2622.03 73.98 C 2562.67 74.03 2503.32 73.98 2443.96 74.00 C 2435.23 74.07 2426.31 73.43 2417.82 75.89 C 2405.34 79.29 2394.40 88.59 2390.05 100.91 C 2384.23 116.93 2387.49 136.82 2400.39 148.55 C 2408.56 156.22 2419.91 159.81 2430.98 160.00 C 2475.65 160.01 2520.31 159.99 2564.97 160.01 C 2588.91 159.95 2612.86 168.37 2631.29 183.70 C 2645.88 195.53 2657.12 211.42 2663.55 229.06 C 2671.01 249.82 2672.04 272.98 2665.68 294.16 C 2660.03 313.46 2648.61 331.00 2633.39 344.10 C 2614.64 360.47 2589.90 369.52 2565.05 369.60 C 2486.81 369.65 2408.58 369.61 2330.34 369.62 C 2330.35 349.00 2330.33 328.37 2330.36 307.74 C 2402.90 307.75 2475.44 307.75 2547.98 307.75 C 2553.69 307.68 2559.49 308.12 2565.14 306.86 C 2579.71 304.04 2592.30 293.00 2597.14 278.98 C 2602.43 264.40 2598.74 247.09 2588.23 235.74 C 2580.55 227.27 2569.37 222.07 2557.93 221.76 C 2511.81 221.70 2465.68 221.81 2419.56 221.71 C 2387.10 221.47 2355.54 204.58 2336.82 178.16 C 2318.11 152.59 2312.22 118.28 2321.06 87.89 C 2328.78 60.76 2348.10 37.26 2373.05 24.17 Z" />
</g>
</svg>
